<?xml version="1.0" standalone="no"?>
<!DOCTYPE svg PUBLIC "-//W3C//DTD SVG 20010904//EN"
 "http://www.w3.org/TR/2001/REC-SVG-20010904/DTD/svg10.dtd">
<svg version="1.0" xmlns="http://www.w3.org/2000/svg"
 width="256.000000pt" height="256.000000pt" viewBox="0 0 256.000000 256.000000"
 preserveAspectRatio="xMidYMid meet">
<metadata>
Created by potrace 1.14, written by Peter Selinger 2001-2017
</metadata>
<g transform="translate(0.000000,256.000000) scale(0.100000,-0.100000)"
fill="#000000" stroke="none">
<path d="M1291 2154 c-40 -13 -77 -24 -82 -24 -5 0 -41 -20 -81 -44 -96 -59
-130 -104 -153 -205 -16 -72 -17 -89 -5 -152 10 -61 18 -79 52 -115 51 -56
159 -110 235 -119 116 -14 170 -41 259 -132 112 -114 125 -149 132 -350 5
-164 1 -183 -43 -183 -26 0 -119 36 -155 60 -14 10 -46 26 -71 38 -62 26 -88
72 -151 260 -38 113 -56 153 -79 175 -41 38 -90 37 -130 -2 -40 -40 -39 -94 5
-214 18 -50 41 -117 51 -147 24 -76 99 -186 152 -224 58 -41 286 -145 334
-152 21 -4 64 -3 96 1 52 6 61 11 113 64 71 73 90 127 90 260 0 180 -26 306
-90 430 -10 21 -65 85 -122 142 -96 97 -108 106 -180 132 -43 16 -106 33 -140
38 -35 6 -72 13 -84 15 -11 2 -33 13 -47 25 -50 39 -32 141 31 177 103 57 133
62 332 56 102 -3 222 -10 268 -15 45 -5 98 -7 117 -3 116 21 113 180 -3 198
-92 14 -251 25 -407 30 -160 4 -174 3 -244 -20z"/>
<path d="M2157 1814 c-17 -17 -28 -41 -32 -72 -4 -26 -13 -67 -20 -92 -8 -25
-24 -106 -36 -180 -12 -75 -34 -169 -51 -215 -57 -154 -70 -220 -66 -340 3
-94 7 -116 27 -152 60 -104 209 -144 302 -80 28 20 74 86 98 143 51 117 105
218 139 257 36 41 42 55 42 93 0 74 -65 121 -131 94 -45 -19 -114 -104 -160
-200 -22 -47 -55 -113 -72 -148 l-32 -62 -3 67 c-4 79 12 172 38 223 22 44 54
175 75 310 10 58 26 136 37 173 37 124 2 207 -87 207 -32 0 -48 -6 -68 -26z"/>
<path d="M660 584 c-8 -1 -36 -5 -62 -9 -64 -8 -98 -43 -98 -100 0 -32 6 -48
26 -69 31 -30 8 -28 299 -26 249 1 460 -16 600 -50 73 -18 157 -30 394 -59 47
-6 89 -15 95 -21 5 -5 29 -10 52 -10 59 0 94 36 94 97 0 37 -6 51 -33 78 -37
37 -81 49 -236 66 -134 14 -271 36 -371 59 -132 30 -368 50 -566 49 -98 -1
-186 -3 -194 -5z"/>
</g>
</svg>
